<svg xmlns="http://www.w3.org/2000/svg" viewBox="0 0 512 512">
  <!-- 배경 -->
  <rect width="512" height="512" rx="96" fill="#16A87A"/>
  <!-- 영수증 본체 -->
  <rect x="136" y="88" width="240" height="312" rx="10" fill="white" fill-opacity="0.95"/>
  <!-- 영수증 지그재그 하단 -->
  <polygon points="136,376 152,360 168,376 184,360 200,376 216,360 232,376 248,360 264,376 280,360 296,376 312,360 328,376 344,360 360,376 376,360 376,400 136,400" fill="#16A87A"/>
  <polygon points="136,376 152,360 168,376 184,360 200,376 216,360 232,376 248,360 264,376 280,360 296,376 312,360 328,376 344,360 360,376 376,360 376,400 136,400" fill="white" fill-opacity="0.95" transform="translate(0,24)"/>
  <!-- 타이틀 줄 -->
  <rect x="168" y="128" width="176" height="14" rx="5" fill="#16A87A"/>
  <!-- 항목 줄들 -->
  <rect x="168" y="164" width="176" height="9" rx="3" fill="#d1fae5"/>
  <rect x="168" y="184" width="136" height="9" rx="3" fill="#d1fae5"/>
  <rect x="168" y="204" width="156" height="9" rx="3" fill="#d1fae5"/>
  <rect x="168" y="224" width="120" height="9" rx="3" fill="#d1fae5"/>
  <!-- 구분선 -->
  <rect x="168" y="252" width="176" height="2" rx="1" fill="#a7f3d0"/>
  <!-- 합계 금액 -->
  <rect x="248" y="268" width="96" height="18" rx="5" fill="#16A87A"/>
  <!-- AI 뱃지 -->
  <circle cx="368" cy="368" r="56" fill="#0C6B52"/>
  <text x="368" y="380" text-anchor="middle" fill="white" font-family="system-ui,sans-serif" font-size="36" font-weight="800">AI</text>
</svg>
